<svg xmlns="http://www.w3.org/2000/svg" viewBox="0 0 800 520">
  <rect width="800" height="520" rx="34" fill="#e9f7ff"/>
  <circle cx="220" cy="114" r="35" fill="#ffd54a"/>
  <circle cx="583" cy="145" r="26" fill="#8fd6ff"/>
  <rect x="250" y="84" width="300" height="280" rx="38" fill="#ffffff"/>
  <path d="M328 137h144v66c0 56-32 95-72 117-40-22-72-61-72-117z" fill="#ffd54a"/>
  <path d="M300 151h-50c0 71 45 97 78 95" fill="none" stroke="#ffb300" stroke-width="20" stroke-linecap="round"/>
  <path d="M500 151h50c0 71-45 97-78 95" fill="none" stroke="#ffb300" stroke-width="20" stroke-linecap="round"/>
  <rect x="366" y="316" width="68" height="56" rx="14" fill="#1f78d1"/>
  <rect x="318" y="365" width="164" height="38" rx="19" fill="#16a45d"/>
  <text x="363" y="214" font-size="78" font-family="Arial" fill="#ffffff">1</text>
</svg>
